<svg id="Layer_1" data-name="Layer 1" xmlns="http://www.w3.org/2000/svg" xmlns:xlink="http://www.w3.org/1999/xlink" viewBox="0 0 1400 1400"><defs><style>.cls-1{fill:url(#linear-gradient);}.cls-2{fill:url(#linear-gradient-2);}.cls-3{opacity:0.5;}.cls-4{fill:#fff;}</style><linearGradient id="linear-gradient" x1="700" y1="421.3" x2="700" y2="-608" gradientTransform="translate(0 608)" gradientUnits="userSpaceOnUse"><stop offset="0" stop-color="#ffffba"/><stop offset="0.4" stop-color="#cd7e91"/><stop offset="0.52" stop-color="#9f6884"/><stop offset="0.68" stop-color="#684d74"/><stop offset="0.82" stop-color="#403a69"/><stop offset="0.93" stop-color="#282e62"/><stop offset="1" stop-color="#1f2a5f"/></linearGradient><linearGradient id="linear-gradient-2" x1="700" y1="405.1" x2="700" y2="792" gradientTransform="translate(0 608)" gradientUnits="userSpaceOnUse"><stop offset="0" stop-color="#ffffba"/><stop offset="0.3" stop-color="#ffa6bb"/><stop offset="0.33" stop-color="#ea9ab2"/><stop offset="0.43" stop-color="#b57d9d"/><stop offset="0.53" stop-color="#87648a"/><stop offset="0.63" stop-color="#614f7a"/><stop offset="0.72" stop-color="#443f6e"/><stop offset="0.82" stop-color="#303366"/><stop offset="0.91" stop-color="#232c61"/><stop offset="1" stop-color="#1f2a5f"/></linearGradient></defs><title>background</title><g id="background"><g id="Background-2" data-name="Background"><g id="sky"><rect class="cls-1" width="1400" height="1029.3"/></g></g><g id="Objects"><g id="sea"><rect class="cls-2" y="1013.1" width="1400" height="386.9"/></g><g id="star" class="cls-3"><circle class="cls-4" cx="87.31" cy="327.63" r="1.9" transform="matrix(0.85, -0.53, 0.53, 0.85, -160.7, 96.42)"/><circle class="cls-4" cx="154.9" cy="178.4" r="1.9"/><circle class="cls-4" cx="49.1" cy="37.5" r="1.9"/><circle class="cls-4" cx="572.85" cy="200.81" r="1.9" transform="matrix(0.85, -0.53, 0.53, 0.85, -19.17, 334.96)"/><circle class="cls-4" cx="572.78" cy="56.21" r="1.9" transform="translate(57.61 312.79) rotate(-32.08)"/><circle class="cls-4" cx="728.4" cy="149.3" r="3"/><circle class="cls-4" cx="433.8" cy="260.3" r="1.9"/><circle class="cls-4" cx="1198.28" cy="394.69" r="1.9" transform="translate(-26.65 696.68) rotate(-32.08)"/><circle class="cls-4" cx="1365.69" cy="280.1" r="1.9" transform="translate(59.77 768.09) rotate(-32.08)"/><circle class="cls-4" cx="1087.83" cy="246.2" r="1.9" transform="translate(35.38 615.43) rotate(-32.08)"/><circle class="cls-4" cx="351.6" cy="172.6" r="1.9"/><circle class="cls-4" cx="675.64" cy="327.57" r="1.9" transform="translate(-70.8 408.92) rotate(-32.08)"/><circle class="cls-4" cx="902.55" cy="509.71" r="1.9" transform="translate(-132.89 557.27) rotate(-32.08)"/><circle class="cls-4" cx="883.59" cy="303.02" r="1.9" transform="translate(-26.02 515.55) rotate(-32.08)"/><circle class="cls-4" cx="798.76" cy="417.11" r="1.9" transform="translate(-99.55 487.99) rotate(-32.08)"/><circle class="cls-4" cx="1101.1" cy="539.3" r="1.9"/><circle class="cls-4" cx="928.96" cy="110.79" r="1.9" transform="translate(83.04 510.36) rotate(-32.08)"/><circle class="cls-4" cx="1271.38" cy="28.18" r="1.9" transform="translate(179.22 679.63) rotate(-32.08)"/><circle class="cls-4" cx="1014.16" cy="396.61" r="1.9" transform="translate(-55.77 599.28) rotate(-32.08)"/><circle class="cls-4" cx="1245.4" cy="170.8" r="3"/><circle class="cls-4" cx="1316.67" cy="384" r="2.3" transform="translate(-2.87 758.04) rotate(-32.08)"/><circle class="cls-4" cx="926.6" cy="386.3" r="2.3"/><circle class="cls-4" cx="1216.14" cy="277.71" r="2.3" transform="translate(38.24 688.4) rotate(-32.08)"/><circle class="cls-4" cx="647.05" cy="142.89" r="2.3" transform="matrix(0.85, -0.53, 0.53, 0.85, 22.93, 365.52)"/><circle class="cls-4" cx="778.47" cy="31.91" r="3.7" transform="translate(101.92 418.32) rotate(-32.08)"/><circle class="cls-4" cx="959.88" cy="206.82" r="3.7" transform="translate(36.72 541.38) rotate(-32.08)"/><circle class="cls-4" cx="1109.36" cy="462.61" r="3.7" transform="translate(-76.29 659.92) rotate(-32.08)"/><circle class="cls-4" cx="1116.7" cy="90.7" r="3.7" transform="translate(122.34 606.94) rotate(-32.08)"/><circle class="cls-4" cx="36.2" cy="180.6" r="3.7"/><circle class="cls-4" cx="1354.78" cy="539.42" r="2.3" transform="translate(-79.62 801.89) rotate(-32.08)"/><circle class="cls-4" cx="1361.97" cy="94.31" r="3.7" transform="translate(157.88 737.75) rotate(-32.08)"/><circle class="cls-4" cx="511.41" cy="368.91" r="2.3" transform="translate(-72.61 131.11) rotate(-13.65)"/><circle class="cls-4" cx="774.8" cy="329.3" r="3.7"/><circle class="cls-4" cx="250.2" cy="237.5" r="2.3"/><circle class="cls-4" cx="209.8" cy="56.2" r="2.3"/><circle class="cls-4" cx="431.68" cy="203.12" r="3.7" transform="translate(-41.96 260.28) rotate(-32.08)"/><circle class="cls-4" cx="448.34" cy="49.19" r="2.3" transform="translate(42.35 245.66) rotate(-32.08)"/><circle class="cls-4" cx="152.29" cy="371.3" r="3.7" transform="translate(-173.95 137.58) rotate(-32.08)"/><path class="cls-4" d="M284.2,78.2a16.09,16.09,0,0,1-16.1,16.1,16.09,16.09,0,0,1,16.1,16.1,16.09,16.09,0,0,1,16.1-16.1A16.09,16.09,0,0,1,284.2,78.2Z"/></g></g></g></svg>