<?xml version="1.0" encoding="utf-8"?>
<!-- Generator: Adobe Illustrator 17.0.0, SVG Export Plug-In . SVG Version: 6.00 Build 0)  -->
<!DOCTYPE svg PUBLIC "-//W3C//DTD SVG 1.1//EN" "http://www.w3.org/Graphics/SVG/1.1/DTD/svg11.dtd">
<svg version="1.1" id="Calque_1" xmlns="http://www.w3.org/2000/svg" xmlns:xlink="http://www.w3.org/1999/xlink" x="0px" y="0px"
	 width="512px" height="512px" viewBox="0 0 512 512" enable-background="new 0 0 512 512" xml:space="preserve">
<g>
	<linearGradient id="SVGID_1_" gradientUnits="userSpaceOnUse" x1="117.2472" y1="373.2472" x2="288.4576" y2="202.0368">
		<stop  offset="0" style="stop-color:#FFE473"/>
		<stop  offset="0.1814" style="stop-color:#FFDE73"/>
		<stop  offset="0.4189" style="stop-color:#FFCE73"/>
		<stop  offset="0.6874" style="stop-color:#FFB373"/>
		<stop  offset="0.9768" style="stop-color:#FF8D73"/>
		<stop  offset="1" style="stop-color:#FF8A73"/>
	</linearGradient>
	<path fill="url(#SVGID_1_)" d="M492.75,375.884V63.758c0-2.761-2.238-5-5-5H375.224h-66.979H286.82
		c-0.003,0-0.006-0.001-0.01-0.001c-13.096,0-24.566,7.07-30.811,17.589c-6.245-10.519-17.715-17.589-30.811-17.589
		c-0.003,0-0.006,0.001-0.01,0.001H24.25c-2.761,0-5,2.239-5,5v312.126c0,2.762,2.239,5,5,5h0.362
		c-3.473,4.519-5.362,10.015-5.362,15.789c0,14.192,11.569,25.738,25.79,25.738h180.025c0.069,0.003,0.134,0.021,0.203,0.021
		c14.226,0,25.8,11.569,25.811,25.792c0,0.006,0,0.013,0,0.019c0,2.762,2.239,5,5,5c0,0,0,0,0,0s0,0,0,0c2.762,0,5-2.238,5-5
		c0-0.006,0-0.013,0-0.019c0.01-14.224,11.584-25.792,25.81-25.792c0.07,0,0.134-0.018,0.203-0.021H466.96
		c14.221,0,25.79-11.546,25.79-25.738c0-5.945-2.028-11.422-5.42-15.789h0.42C490.512,380.884,492.75,378.646,492.75,375.884z
		 M313.244,68.758h56.979v114.805l-25.085-23.322c-1.918-1.784-4.891-1.783-6.809,0l-25.086,23.322V68.758z M29.25,68.758h195.939
		c0.003,0,0.005-0.001,0.008-0.001C239.426,68.761,251,80.338,251,94.568V381.91c-0.188-0.196-0.372-0.395-0.565-0.586
		c-0.08-0.079-0.163-0.154-0.244-0.232c-0.413-0.403-0.835-0.796-1.266-1.179c-0.159-0.141-0.32-0.279-0.481-0.417
		c-0.388-0.333-0.784-0.656-1.186-0.972c-0.149-0.117-0.296-0.237-0.447-0.352c-0.546-0.415-1.101-0.817-1.671-1.201
		c-0.075-0.05-0.153-0.096-0.228-0.146c-0.5-0.331-1.009-0.649-1.526-0.956c-0.181-0.107-0.365-0.211-0.548-0.315
		c-0.446-0.254-0.898-0.497-1.355-0.732c-0.174-0.089-0.346-0.181-0.522-0.268c-0.621-0.306-1.25-0.599-1.89-0.869
		c-0.06-0.025-0.122-0.047-0.182-0.072c-0.583-0.242-1.174-0.467-1.772-0.679c-0.2-0.071-0.401-0.137-0.603-0.204
		c-0.491-0.164-0.987-0.317-1.487-0.461c-0.197-0.056-0.392-0.115-0.59-0.168c-0.681-0.182-1.367-0.35-2.064-0.493
		c-0.039-0.008-0.079-0.013-0.118-0.021c-0.658-0.132-1.324-0.242-1.994-0.338c-0.214-0.03-0.428-0.055-0.643-0.082
		c-0.526-0.065-1.054-0.119-1.587-0.161c-0.216-0.017-0.431-0.036-0.648-0.049c-0.727-0.044-1.458-0.074-2.195-0.074H45.04H29.25
		V68.758z M466.96,412.411H286.863c-0.096,0-0.186,0.023-0.281,0.028c-12.967,0.11-24.308,7.144-30.504,17.581
		c-6.208-10.455-17.578-17.498-30.574-17.583c-0.089-0.005-0.173-0.026-0.263-0.026H45.04c-8.707,0-15.79-7.061-15.79-15.738
		c0-4.221,1.639-8.207,4.565-11.176c3.016-2.975,7.002-4.613,11.225-4.613h180.149c14.232,0,25.811,11.579,25.811,25.812
		c0,2.762,2.239,5,5,5c2.762,0,5-2.238,5-5c0-14.232,11.578-25.812,25.811-25.812H466.96c8.707,0,15.79,7.083,15.79,15.789
		C482.75,405.351,475.667,412.411,466.96,412.411z M482.75,370.884h-15.79H286.82c-0.003,0-0.006-0.001-0.01-0.001
		c-0.746,0-1.484,0.03-2.218,0.076c-0.196,0.012-0.391,0.029-0.586,0.045c-0.558,0.043-1.112,0.1-1.663,0.168
		c-0.195,0.024-0.389,0.047-0.583,0.074c-0.712,0.101-1.419,0.216-2.117,0.359c-0.001,0-0.001,0-0.002,0
		c-0.709,0.145-1.408,0.316-2.101,0.502c-0.178,0.048-0.354,0.101-0.531,0.151c-0.524,0.149-1.044,0.31-1.558,0.483
		c-0.183,0.061-0.366,0.121-0.547,0.186c-0.633,0.224-1.259,0.461-1.875,0.719c-0.028,0.012-0.058,0.022-0.086,0.034
		c-0.652,0.275-1.291,0.572-1.923,0.884c-0.158,0.078-0.313,0.161-0.469,0.241c-0.478,0.245-0.95,0.5-1.416,0.765
		c-0.168,0.096-0.336,0.191-0.503,0.289c-0.544,0.322-1.08,0.656-1.605,1.005c-0.051,0.034-0.104,0.065-0.156,0.1
		c-0.578,0.389-1.142,0.798-1.696,1.219c-0.137,0.104-0.27,0.213-0.405,0.319c-0.419,0.328-0.831,0.665-1.235,1.012
		c-0.149,0.128-0.299,0.256-0.446,0.387c-0.451,0.4-0.893,0.81-1.323,1.232c-0.063,0.062-0.129,0.12-0.191,0.182
		c-0.195,0.194-0.383,0.396-0.574,0.595V94.568c0-14.23,11.574-25.807,25.803-25.811c0.003,0,0.005,0.001,0.008,0.001h16.434v35.117
		h-16.434c-2.762,0-5,2.239-5,5s2.238,5,5,5h16.434v27.938h-16.434c-2.762,0-5,2.239-5,5s2.238,5,5,5h16.434v27.937h-16.434
		c-2.762,0-5,2.239-5,5s2.238,5,5,5h16.434v5.288c0,0.117,0.026,0.226,0.034,0.341c0.013,0.185,0.023,0.368,0.055,0.55
		c0.028,0.157,0.075,0.306,0.118,0.458c0.045,0.16,0.086,0.319,0.148,0.475c0.062,0.157,0.141,0.304,0.218,0.453
		c0.072,0.139,0.138,0.279,0.224,0.412c0.101,0.157,0.219,0.299,0.336,0.444c0.072,0.089,0.126,0.186,0.205,0.271
		c0.021,0.022,0.046,0.037,0.066,0.058c0.133,0.138,0.283,0.257,0.431,0.379c0.107,0.088,0.207,0.186,0.319,0.263
		c0.143,0.099,0.301,0.176,0.455,0.261c0.131,0.072,0.257,0.154,0.393,0.213c0.148,0.065,0.307,0.105,0.462,0.155
		c0.154,0.05,0.305,0.109,0.462,0.143c0.141,0.031,0.288,0.039,0.433,0.057c0.184,0.024,0.366,0.052,0.552,0.056
		c0.031,0.001,0.059,0.009,0.09,0.009c0.118,0,0.228-0.027,0.344-0.035c0.184-0.013,0.366-0.022,0.548-0.055
		c0.157-0.028,0.306-0.075,0.458-0.118c0.161-0.045,0.32-0.087,0.477-0.148c0.156-0.062,0.302-0.14,0.45-0.216
		c0.14-0.072,0.28-0.139,0.415-0.225c0.157-0.1,0.298-0.218,0.442-0.335c0.089-0.072,0.187-0.127,0.272-0.206l30.086-27.97
		l30.085,27.97c0.096,0.089,0.204,0.153,0.305,0.233c0.127,0.101,0.249,0.207,0.386,0.295c0.147,0.095,0.301,0.169,0.455,0.247
		c0.129,0.066,0.252,0.138,0.387,0.193c0.182,0.073,0.369,0.122,0.556,0.173c0.119,0.033,0.233,0.077,0.356,0.1
		c0.317,0.062,0.637,0.097,0.958,0.097c0,0,0,0,0,0s0,0,0,0c0.087,0,0.169-0.021,0.255-0.026c0.249-0.013,0.499-0.025,0.745-0.075
		c0.332-0.067,0.651-0.168,0.956-0.297c0.058-0.025,0.11-0.064,0.167-0.091c0.244-0.115,0.483-0.239,0.704-0.391
		c0.088-0.061,0.166-0.14,0.251-0.207c0.181-0.143,0.36-0.287,0.52-0.453c0.02-0.021,0.045-0.035,0.065-0.056
		c0.079-0.085,0.133-0.182,0.205-0.271c0.117-0.145,0.235-0.286,0.336-0.444c0.086-0.134,0.152-0.273,0.224-0.412
		c0.077-0.149,0.155-0.295,0.217-0.452c0.061-0.156,0.103-0.316,0.148-0.476c0.043-0.152,0.089-0.3,0.118-0.457
		c0.033-0.183,0.043-0.366,0.055-0.55c0.008-0.115,0.034-0.224,0.034-0.341v-5.288h75.161c2.762,0,5-2.239,5-5s-2.238-5-5-5h-75.161
		v-27.937h75.161c2.762,0,5-2.239,5-5s-2.238-5-5-5h-75.161v-27.938h75.161c2.762,0,5-2.239,5-5s-2.238-5-5-5h-75.161V68.758H482.75
		V370.884z"/>
	<linearGradient id="SVGID_2_" gradientUnits="userSpaceOnUse" x1="2.917" y1="258.917" x2="174.1274" y2="87.7066">
		<stop  offset="0" style="stop-color:#FFE473"/>
		<stop  offset="0.1814" style="stop-color:#FFDE73"/>
		<stop  offset="0.4189" style="stop-color:#FFCE73"/>
		<stop  offset="0.6874" style="stop-color:#FFB373"/>
		<stop  offset="0.9768" style="stop-color:#FF8D73"/>
		<stop  offset="1" style="stop-color:#FF8A73"/>
	</linearGradient>
	<path fill="url(#SVGID_2_)" d="M57.311,225.705h79.466c2.761,0,5-2.239,5-5v-111.83c0-2.761-2.239-5-5-5H57.311
		c-2.761,0-5,2.239-5,5v111.83C52.311,223.466,54.55,225.705,57.311,225.705z M62.311,113.875h69.466v101.83H62.311V113.875z"/>
	<linearGradient id="SVGID_3_" gradientUnits="userSpaceOnUse" x1="22.2767" y1="278.2767" x2="193.4871" y2="107.0663">
		<stop  offset="0" style="stop-color:#FFE473"/>
		<stop  offset="0.1814" style="stop-color:#FFDE73"/>
		<stop  offset="0.4189" style="stop-color:#FFCE73"/>
		<stop  offset="0.6874" style="stop-color:#FFB373"/>
		<stop  offset="0.9768" style="stop-color:#FF8D73"/>
		<stop  offset="1" style="stop-color:#FF8A73"/>
	</linearGradient>
	<path fill="url(#SVGID_3_)" d="M158.21,113.854h66.979c2.761,0,5-2.239,5-5s-2.239-5-5-5H158.21c-2.761,0-5,2.239-5,5
		S155.449,113.854,158.21,113.854z"/>
	<linearGradient id="SVGID_4_" gradientUnits="userSpaceOnUse" x1="41.2562" y1="297.2562" x2="212.4666" y2="126.0458">
		<stop  offset="0" style="stop-color:#FFE473"/>
		<stop  offset="0.1814" style="stop-color:#FFDE73"/>
		<stop  offset="0.4189" style="stop-color:#FFCE73"/>
		<stop  offset="0.6874" style="stop-color:#FFB373"/>
		<stop  offset="0.9768" style="stop-color:#FF8D73"/>
		<stop  offset="1" style="stop-color:#FF8A73"/>
	</linearGradient>
	<path fill="url(#SVGID_4_)" d="M158.21,151.813h66.979c2.761,0,5-2.239,5-5s-2.239-5-5-5H158.21c-2.761,0-5,2.239-5,5
		S155.449,151.813,158.21,151.813z"/>
	<linearGradient id="SVGID_5_" gradientUnits="userSpaceOnUse" x1="59.2281" y1="315.2281" x2="230.4386" y2="144.0177">
		<stop  offset="0" style="stop-color:#FFE473"/>
		<stop  offset="0.1814" style="stop-color:#FFDE73"/>
		<stop  offset="0.4189" style="stop-color:#FFCE73"/>
		<stop  offset="0.6874" style="stop-color:#FFB373"/>
		<stop  offset="0.9768" style="stop-color:#FF8D73"/>
		<stop  offset="1" style="stop-color:#FF8A73"/>
	</linearGradient>
	<path fill="url(#SVGID_5_)" d="M158.21,187.757h66.979c2.761,0,5-2.239,5-5s-2.239-5-5-5H158.21c-2.761,0-5,2.239-5,5
		S155.449,187.757,158.21,187.757z"/>
	<linearGradient id="SVGID_6_" gradientUnits="userSpaceOnUse" x1="78.2047" y1="334.2047" x2="249.4151" y2="162.9943">
		<stop  offset="0" style="stop-color:#FFE473"/>
		<stop  offset="0.1814" style="stop-color:#FFDE73"/>
		<stop  offset="0.4189" style="stop-color:#FFCE73"/>
		<stop  offset="0.6874" style="stop-color:#FFB373"/>
		<stop  offset="0.9768" style="stop-color:#FF8D73"/>
		<stop  offset="1" style="stop-color:#FF8A73"/>
	</linearGradient>
	<path fill="url(#SVGID_6_)" d="M158.21,225.71h66.979c2.761,0,5-2.239,5-5s-2.239-5-5-5H158.21c-2.761,0-5,2.239-5,5
		S155.449,225.71,158.21,225.71z"/>
	<linearGradient id="SVGID_7_" gradientUnits="userSpaceOnUse" x1="69.8874" y1="325.8874" x2="241.0978" y2="154.677">
		<stop  offset="0" style="stop-color:#FFE473"/>
		<stop  offset="0.1814" style="stop-color:#FFDE73"/>
		<stop  offset="0.4189" style="stop-color:#FFCE73"/>
		<stop  offset="0.6874" style="stop-color:#FFB373"/>
		<stop  offset="0.9768" style="stop-color:#FF8D73"/>
		<stop  offset="1" style="stop-color:#FF8A73"/>
	</linearGradient>
	<path fill="url(#SVGID_7_)" d="M56.62,259.87h168.569c2.761,0,5-2.238,5-5c0-2.761-2.239-5-5-5H56.62c-2.761,0-5,2.239-5,5
		C51.62,257.632,53.859,259.87,56.62,259.87z"/>
	<linearGradient id="SVGID_8_" gradientUnits="userSpaceOnUse" x1="88.8663" y1="344.8663" x2="260.0767" y2="173.6559">
		<stop  offset="0" style="stop-color:#FFE473"/>
		<stop  offset="0.1814" style="stop-color:#FFDE73"/>
		<stop  offset="0.4189" style="stop-color:#FFCE73"/>
		<stop  offset="0.6874" style="stop-color:#FFB373"/>
		<stop  offset="0.9768" style="stop-color:#FF8D73"/>
		<stop  offset="1" style="stop-color:#FF8A73"/>
	</linearGradient>
	<path fill="url(#SVGID_8_)" d="M56.62,297.828h168.569c2.761,0,5-2.238,5-5s-2.239-5-5-5H56.62c-2.761,0-5,2.238-5,5
		S53.859,297.828,56.62,297.828z"/>
	<linearGradient id="SVGID_9_" gradientUnits="userSpaceOnUse" x1="107.8458" y1="363.8458" x2="279.0562" y2="192.6354">
		<stop  offset="0" style="stop-color:#FFE473"/>
		<stop  offset="0.1814" style="stop-color:#FFDE73"/>
		<stop  offset="0.4189" style="stop-color:#FFCE73"/>
		<stop  offset="0.6874" style="stop-color:#FFB373"/>
		<stop  offset="0.9768" style="stop-color:#FF8D73"/>
		<stop  offset="1" style="stop-color:#FF8A73"/>
	</linearGradient>
	<path fill="url(#SVGID_9_)" d="M56.62,335.787h168.569c2.761,0,5-2.238,5-5s-2.239-5-5-5H56.62c-2.761,0-5,2.238-5,5
		S53.859,335.787,56.62,335.787z"/>
	<linearGradient id="SVGID_10_" gradientUnits="userSpaceOnUse" x1="216.9045" y1="472.9044" x2="388.1149" y2="301.6941">
		<stop  offset="0" style="stop-color:#FFE473"/>
		<stop  offset="0.1814" style="stop-color:#FFDE73"/>
		<stop  offset="0.4189" style="stop-color:#FFCE73"/>
		<stop  offset="0.6874" style="stop-color:#FFB373"/>
		<stop  offset="0.9768" style="stop-color:#FF8D73"/>
		<stop  offset="1" style="stop-color:#FF8A73"/>
	</linearGradient>
	<path fill="url(#SVGID_10_)" d="M454.69,213.937h-79.467c-2.762,0-5,2.239-5,5v111.83c0,2.762,2.238,5,5,5h79.467
		c2.762,0,5-2.238,5-5v-111.83C459.69,216.176,457.452,213.937,454.69,213.937z M449.69,325.767h-69.467v-101.83h69.467V325.767z"/>
	<linearGradient id="SVGID_11_" gradientUnits="userSpaceOnUse" x1="197.5437" y1="453.5437" x2="368.7541" y2="282.3333">
		<stop  offset="0" style="stop-color:#FFE473"/>
		<stop  offset="0.1814" style="stop-color:#FFDE73"/>
		<stop  offset="0.4189" style="stop-color:#FFCE73"/>
		<stop  offset="0.6874" style="stop-color:#FFB373"/>
		<stop  offset="0.9768" style="stop-color:#FF8D73"/>
		<stop  offset="1" style="stop-color:#FF8A73"/>
	</linearGradient>
	<path fill="url(#SVGID_11_)" d="M353.79,325.787h-66.979c-2.762,0-5,2.238-5,5s2.238,5,5,5h66.979c2.762,0,5-2.238,5-5
		S356.552,325.787,353.79,325.787z"/>
	<linearGradient id="SVGID_12_" gradientUnits="userSpaceOnUse" x1="178.5642" y1="434.5642" x2="349.7746" y2="263.3538">
		<stop  offset="0" style="stop-color:#FFE473"/>
		<stop  offset="0.1814" style="stop-color:#FFDE73"/>
		<stop  offset="0.4189" style="stop-color:#FFCE73"/>
		<stop  offset="0.6874" style="stop-color:#FFB373"/>
		<stop  offset="0.9768" style="stop-color:#FF8D73"/>
		<stop  offset="1" style="stop-color:#FF8A73"/>
	</linearGradient>
	<path fill="url(#SVGID_12_)" d="M353.79,287.828h-66.979c-2.762,0-5,2.238-5,5s2.238,5,5,5h66.979c2.762,0,5-2.238,5-5
		S356.552,287.828,353.79,287.828z"/>
	<linearGradient id="SVGID_13_" gradientUnits="userSpaceOnUse" x1="160.5926" y1="416.5926" x2="331.803" y2="245.3822">
		<stop  offset="0" style="stop-color:#FFE473"/>
		<stop  offset="0.1814" style="stop-color:#FFDE73"/>
		<stop  offset="0.4189" style="stop-color:#FFCE73"/>
		<stop  offset="0.6874" style="stop-color:#FFB373"/>
		<stop  offset="0.9768" style="stop-color:#FF8D73"/>
		<stop  offset="1" style="stop-color:#FF8A73"/>
	</linearGradient>
	<path fill="url(#SVGID_13_)" d="M353.79,251.885h-66.979c-2.762,0-5,2.239-5,5c0,2.762,2.238,5,5,5h66.979c2.762,0,5-2.238,5-5
		C358.79,254.124,356.552,251.885,353.79,251.885z"/>
	<linearGradient id="SVGID_14_" gradientUnits="userSpaceOnUse" x1="141.6157" y1="397.6157" x2="312.8261" y2="226.4053">
		<stop  offset="0" style="stop-color:#FFE473"/>
		<stop  offset="0.1814" style="stop-color:#FFDE73"/>
		<stop  offset="0.4189" style="stop-color:#FFCE73"/>
		<stop  offset="0.6874" style="stop-color:#FFB373"/>
		<stop  offset="0.9768" style="stop-color:#FF8D73"/>
		<stop  offset="1" style="stop-color:#FF8A73"/>
	</linearGradient>
	<path fill="url(#SVGID_14_)" d="M353.79,213.931h-66.979c-2.762,0-5,2.239-5,5s2.238,5,5,5h66.979c2.762,0,5-2.239,5-5
		S356.552,213.931,353.79,213.931z"/>
	<linearGradient id="SVGID_15_" gradientUnits="userSpaceOnUse" x1="135.865" y1="391.865" x2="307.0754" y2="220.6546">
		<stop  offset="0" style="stop-color:#FFE473"/>
		<stop  offset="0.1814" style="stop-color:#FFDE73"/>
		<stop  offset="0.4189" style="stop-color:#FFCE73"/>
		<stop  offset="0.6874" style="stop-color:#FFB373"/>
		<stop  offset="0.9768" style="stop-color:#FF8D73"/>
		<stop  offset="1" style="stop-color:#FF8A73"/>
	</linearGradient>
	<path fill="url(#SVGID_15_)" d="M230.548,386.289H42.334c-2.761,0-5,2.238-5,5s2.239,5,5,5h188.214c2.761,0,5-2.238,5-5
		S233.309,386.289,230.548,386.289z"/>
	<linearGradient id="SVGID_16_" gradientUnits="userSpaceOnUse" x1="142.0603" y1="398.0603" x2="313.2707" y2="226.8499">
		<stop  offset="0" style="stop-color:#FFE473"/>
		<stop  offset="0.1814" style="stop-color:#FFDE73"/>
		<stop  offset="0.4189" style="stop-color:#FFCE73"/>
		<stop  offset="0.6874" style="stop-color:#FFB373"/>
		<stop  offset="0.9768" style="stop-color:#FF8D73"/>
		<stop  offset="1" style="stop-color:#FF8A73"/>
	</linearGradient>
	<path fill="url(#SVGID_16_)" d="M230.548,398.68H42.334c-2.761,0-5,2.238-5,5s2.239,5,5,5h188.214c2.761,0,5-2.238,5-5
		S233.309,398.68,230.548,398.68z"/>
	<linearGradient id="SVGID_17_" gradientUnits="userSpaceOnUse" x1="256.0938" y1="512.0938" x2="427.3041" y2="340.8834">
		<stop  offset="0" style="stop-color:#FFE473"/>
		<stop  offset="0.1814" style="stop-color:#FFDE73"/>
		<stop  offset="0.4189" style="stop-color:#FFCE73"/>
		<stop  offset="0.6874" style="stop-color:#FFB373"/>
		<stop  offset="0.9768" style="stop-color:#FF8D73"/>
		<stop  offset="1" style="stop-color:#FF8A73"/>
	</linearGradient>
	<path fill="url(#SVGID_17_)" d="M471.005,386.289H282.792c-2.762,0-5,2.238-5,5s2.238,5,5,5h188.213c2.762,0,5-2.238,5-5
		S473.767,386.289,471.005,386.289z"/>
	<linearGradient id="SVGID_18_" gradientUnits="userSpaceOnUse" x1="262.2891" y1="518.2891" x2="433.4995" y2="347.0787">
		<stop  offset="0" style="stop-color:#FFE473"/>
		<stop  offset="0.1814" style="stop-color:#FFDE73"/>
		<stop  offset="0.4189" style="stop-color:#FFCE73"/>
		<stop  offset="0.6874" style="stop-color:#FFB373"/>
		<stop  offset="0.9768" style="stop-color:#FF8D73"/>
		<stop  offset="1" style="stop-color:#FF8A73"/>
	</linearGradient>
	<path fill="url(#SVGID_18_)" d="M471.005,398.68H282.792c-2.762,0-5,2.238-5,5s2.238,5,5,5h188.213c2.762,0,5-2.238,5-5
		S473.767,398.68,471.005,398.68z"/>
</g>
</svg>
