<svg id="Layer_1" data-name="Layer 1" xmlns="http://www.w3.org/2000/svg" xmlns:xlink="http://www.w3.org/1999/xlink" viewBox="0 0 1400 1400"><defs><style>.cls-1{opacity:0.5;isolation:isolate;fill:url(#linear-gradient);}</style><linearGradient id="linear-gradient" x1="709.55" y1="-93.3" x2="709.55" y2="405.1" gradientTransform="translate(0 608)" gradientUnits="userSpaceOnUse"><stop offset="0" stop-color="#fff"/><stop offset="1" stop-color="#fff" stop-opacity="0"/></linearGradient></defs><title>cloud-02</title><g id="cloud-02"><path class="cls-1" d="M1644.3,1002.9a37.41,37.41,0,0,0-31.6,0,24,24,0,0,0-21.8-13.9,24.52,24.52,0,0,0-2.7.2,58.91,58.91,0,0,0-27.5-33.8,109.39,109.39,0,0,0-103.2-145.7,107.06,107.06,0,0,0-16.1,1.2,73.49,73.49,0,0,0-22.4-48.1,109.29,109.29,0,0,0-107.4-130.1c-3.4,0-6.8.2-10.1.5a177.57,177.57,0,0,0-334.7-.6c-1.1,0-2.2-.1-3.4-.1A109.43,109.43,0,0,0,854,741.9a73.92,73.92,0,0,0-73.7,68.5,60.47,60.47,0,0,0-57.1,19,70.94,70.94,0,0,0-64.5-41.5,69.78,69.78,0,0,0-25.9,4.9,68.69,68.69,0,0,0-125.5,37.3,105,105,0,0,0-80.1,96.8,70.1,70.1,0,0,0-32.3-7.9,68.83,68.83,0,0,0-37.1,10.7h0a70,70,0,0,0-138.5-14.5,103,103,0,0,0-27.4-3.7,101.38,101.38,0,0,0-92.2,59.1,53.32,53.32,0,0,0-74.3,9.3,38,38,0,0,0-19.5-5.3,38.55,38.55,0,0,0-34.7,21.9,52.5,52.5,0,0,0-20.3-4,53.61,53.61,0,0,0-16.7,2.7,42.64,42.64,0,0,0-38.8-24.9,42.68,42.68,0,0,0-40,27.8,54,54,0,0,0-24.7-6,52.66,52.66,0,0,0-24.4,5.9,24.77,24.77,0,0,0-19.8-9.8,24.9,24.9,0,0,0-24.9,24.9H1657.5A38.77,38.77,0,0,0,1644.3,1002.9Z"/></g></svg>