<svg id="Layer_1" data-name="Layer 1" xmlns="http://www.w3.org/2000/svg" viewBox="0 0 1400 1400"><defs><style>.cls-1{fill:#fff;opacity:0.5;isolation:isolate;}</style></defs><title>cloud-02-a</title><g id="cloud-02-a"><path class="cls-1" d="M644.7,831.4a68.32,68.32,0,0,0-11.9-38.6h0a68.69,68.69,0,0,0-125.5,37.3,105,105,0,0,0-80.1,96.8,70.1,70.1,0,0,0-32.3-7.9,68.83,68.83,0,0,0-37.1,10.7h0a70,70,0,0,0-138.5-14.5,103,103,0,0,0-27.4-3.7,101.38,101.38,0,0,0-92.2,59.1,53.32,53.32,0,0,0-74.3,9.3,38,38,0,0,0-19.5-5.3,38.55,38.55,0,0,0-34.7,21.9,52.5,52.5,0,0,0-20.3-4,53.61,53.61,0,0,0-16.7,2.7,42.64,42.64,0,0,0-38.8-24.9,42.68,42.68,0,0,0-40,27.8,54,54,0,0,0-24.7-6,52.66,52.66,0,0,0-24.4,5.9,24.77,24.77,0,0,0-19.8-9.8,24.9,24.9,0,0,0-24.9,24.9H296.9a54.83,54.83,0,0,0,14.7-20.8,54.72,54.72,0,0,0,43.9-2.6,34.07,34.07,0,0,0,50.9-15.3,34,34,0,0,0,59.7-6.9,54.54,54.54,0,0,0,39.8-34.6,33.95,33.95,0,0,0,45.6-.6,54.34,54.34,0,0,0,83.9-45.5,56.33,56.33,0,0,0-2.5-16.5A69.75,69.75,0,0,0,644.7,831.4Z"/></g></svg>