<svg id="Layer_1" data-name="Layer 1" xmlns="http://www.w3.org/2000/svg" xmlns:xlink="http://www.w3.org/1999/xlink" viewBox="0 0 1400 1400"><defs><style>.cls-1,.cls-2{opacity:0.5;}.cls-2{isolation:isolate;fill:url(#linear-gradient);}</style><linearGradient id="linear-gradient" x1="186.25" y1="-294.5" x2="186.25" y2="5.4" gradientTransform="translate(0 608)" gradientUnits="userSpaceOnUse"><stop offset="0" stop-color="#fff"/><stop offset="1" stop-color="#fff" stop-opacity="0"/></linearGradient></defs><title>cloud-01-a</title><g id="cloud-01-a"><g id="cloud" class="cls-1"><path class="cls-2" d="M781.6,583.5a29.84,29.84,0,0,0-23.8,11.8,63.86,63.86,0,0,0-29.2-7,64.5,64.5,0,0,0-29.7,7.2A51.2,51.2,0,0,0,659.7,563,95.79,95.79,0,0,0,612,523.6a86.41,86.41,0,0,0-118.2-99.1,43.83,43.83,0,0,0-20.7-8.9,86.44,86.44,0,0,0-6.6-22.2,85.13,85.13,0,0,0-77.3-49.8,83.82,83.82,0,0,0-31,5.9,82.35,82.35,0,0,0-150.4,44.8,125.7,125.7,0,0,0-96,116,83.67,83.67,0,0,0-83.2,3.3h0a83.78,83.78,0,0,0-83.8-83.8,83.7,83.7,0,0,0-82,66.5,122.52,122.52,0,0,0-32.8-4.5,121.56,121.56,0,0,0-110.5,70.8,63.41,63.41,0,0,0-38.9-13.2,63.57,63.57,0,0,0-50.2,24.4,45.36,45.36,0,0,0-23.4-6.4,45.92,45.92,0,0,0-41.6,26.3,46.57,46.57,0,0,0-4.4,19.7H811.5A29.92,29.92,0,0,0,781.6,583.5Z"/></g></g></svg>