<svg id="Layer_1" data-name="Layer 1" xmlns="http://www.w3.org/2000/svg" viewBox="0 0 1400 1400"><defs><style>.cls-1{fill:#fff;}</style></defs><title>cloud-01</title><g id="cloud-01"><path class="cls-1" d="M-408.6,613.4H-44.4a65.59,65.59,0,0,0,17.7-25A65.74,65.74,0,0,0-4,592.5a64.61,64.61,0,0,0,29.8-7.2,40.79,40.79,0,0,0,61-18.4,40.76,40.76,0,0,0,71.6-8.3,65.37,65.37,0,0,0,47.7-41.5,40.61,40.61,0,0,0,54.6-.7,64.87,64.87,0,0,0,100.4-54.5,64,64,0,0,0-3.1-19.7,82.19,82.19,0,0,0,.1-92.8h0a82.35,82.35,0,0,0-150.4,44.8,125.7,125.7,0,0,0-96,116,83.67,83.67,0,0,0-83.2,3.3h0a83.78,83.78,0,0,0-83.8-83.8,83.7,83.7,0,0,0-82,66.5,122.52,122.52,0,0,0-32.8-4.5,121.56,121.56,0,0,0-110.5,70.8,63.41,63.41,0,0,0-38.9-13.2,63.57,63.57,0,0,0-50.2,24.4,45.36,45.36,0,0,0-23.4-6.4,45.92,45.92,0,0,0-41.6,26.3,46.57,46.57,0,0,0-4.4,19.7h30.5v.1Z"/></g></svg>