<svg id="Layer_1" data-name="Layer 1" xmlns="http://www.w3.org/2000/svg" xmlns:xlink="http://www.w3.org/1999/xlink" viewBox="0 0 1400 1400"><defs><style>.cls-1{opacity:0.5;isolation:isolate;fill:url(#linear-gradient);}</style><linearGradient id="linear-gradient" x1="709.65" y1="1463.64" x2="709.65" y2="1962.04" gradientTransform="matrix(1, 0, 0, -1, 0, 2974.84)" gradientUnits="userSpaceOnUse"><stop offset="0" stop-color="#fff"/><stop offset="1" stop-color="#fff" stop-opacity="0"/></linearGradient></defs><title>cloud-03</title><g id="cloud-03"><path class="cls-1" d="M633,1233.1a68.69,68.69,0,0,1-125.5-37.3,105,105,0,0,1-80.1-96.8,70.1,70.1,0,0,1-32.3,7.9,68.83,68.83,0,0,1-37.1-10.7h0a70,70,0,0,1-138.5,14.5,103,103,0,0,1-27.4,3.7,101.38,101.38,0,0,1-92.2-59.1,53.32,53.32,0,0,1-74.3-9.3,38,38,0,0,1-19.5,5.3,38.55,38.55,0,0,1-34.7-21.9,52.5,52.5,0,0,1-20.3,4,53.61,53.61,0,0,1-16.7-2.7,42.64,42.64,0,0,1-38.8,24.9,42.68,42.68,0,0,1-40-27.8,54,54,0,0,1-24.7,6,52.66,52.66,0,0,1-24.4-5.9,24.77,24.77,0,0,1-19.8,9.8,24.9,24.9,0,0,1-24.9-24.9H1657.5a37,37,0,0,1-13.2,10.4,37.41,37.41,0,0,1-31.6,0,24,24,0,0,1-21.8,13.9,24.52,24.52,0,0,1-2.7-.2,58.91,58.91,0,0,1-27.5,33.8,109.39,109.39,0,0,1-103.2,145.7,107.06,107.06,0,0,1-16.1-1.2,73.49,73.49,0,0,1-22.4,48.1,109.29,109.29,0,0,1-107.4,130.1c-3.4,0-6.8-.2-10.1-.5a177.48,177.48,0,0,1-334.5.4c-1.1,0-2.2.1-3.4.1A109.43,109.43,0,0,1,854.2,1284a73.92,73.92,0,0,1-73.7-68.5,60.47,60.47,0,0,1-57.1-19"/></g></svg>