<svg id="Layer_1" data-name="Layer 1" xmlns="http://www.w3.org/2000/svg" viewBox="0 0 1400 1400"><defs><style>.cls-1{opacity:0.1;}.cls-2{fill:#fff;opacity:0.5;isolation:isolate;}</style></defs><title>cloud-03-b</title><g id="cloud-03-b"><g id="cloud"><g id="shadow_cloud" data-name="shadow cloud" class="cls-1"><path class="cls-2" d="M1234.7,1410.8a100.58,100.58,0,0,1-100.6,100.6,177.57,177.57,0,0,1-167.2-117.9c-1.1,0-2.2.1-3.4.1a109.43,109.43,0,0,1-109.4-109.4,73.92,73.92,0,0,1-73.7-68.5,60.45,60.45,0,0,1-57-18.9v-.1a70.57,70.57,0,0,0,6.4-29.4,71.51,71.51,0,0,0-4.5-25,54.33,54.33,0,0,1,102.7,7.2,28.45,28.45,0,0,1,46.4,10.4,103.3,103.3,0,0,1,160.8,68.3,64.07,64.07,0,0,1,23.7-4.5,65.11,65.11,0,0,1,58.7,36.9,65.09,65.09,0,0,1,86.3,77.7A101,101,0,0,1,1234.7,1410.8Z"/></g></g></g></svg>