<svg id="Layer_1" data-name="Layer 1" xmlns="http://www.w3.org/2000/svg" viewBox="0 0 1400 1400"><defs><style>.cls-1{fill:#fff;opacity:0.5;isolation:isolate;}</style></defs><title>cloud-02-b</title><g id="cloud-02-b"><g id="cloud"><path class="cls-1" d="M1234.7,615.3a100.58,100.58,0,0,0-100.6-100.6A177.57,177.57,0,0,0,966.9,632.6c-1.1,0-2.2-.1-3.4-.1A109.43,109.43,0,0,0,854.1,741.9a73.92,73.92,0,0,0-73.7,68.5,60.45,60.45,0,0,0-57,18.9v.1a70.57,70.57,0,0,1,6.4,29.4,71.51,71.51,0,0,1-4.5,25A54.33,54.33,0,0,0,828,876.6a28.45,28.45,0,0,0,46.4-10.4,103.3,103.3,0,0,0,160.8-68.3,64.07,64.07,0,0,0,23.7,4.5,65.11,65.11,0,0,0,58.7-36.9,65.09,65.09,0,0,0,86.3-77.7A101,101,0,0,0,1234.7,615.3Z"/></g></g></svg>