<?xml version="1.0" encoding="utf-8"?>
<!-- Generator: Adobe Illustrator 21.0.0, SVG Export Plug-In . SVG Version: 6.00 Build 0)  -->
<svg version="1.1" id="Layer_1" xmlns="http://www.w3.org/2000/svg" xmlns:xlink="http://www.w3.org/1999/xlink" x="0px" y="0px"
	 viewBox="0 0 512 512" style="enable-background:new 0 0 512 512;" xml:space="preserve">
<style type="text/css">
	.st0{fill:url(#SVGID_1_);}
	.st1{fill:url(#SVGID_2_);}
	.st2{fill:url(#SVGID_3_);}
	.st3{fill:url(#SVGID_4_);}
	.st4{fill:url(#SVGID_5_);}
	.st5{fill:url(#SVGID_6_);}
	.st6{fill:url(#SVGID_7_);}
	.st7{fill:url(#SVGID_8_);}
	.st8{fill:url(#SVGID_9_);}
	.st9{fill:url(#SVGID_10_);}
	.st10{fill:url(#SVGID_11_);}
	.st11{fill:url(#SVGID_12_);}
	.st12{fill:url(#SVGID_13_);}
	.st13{fill:url(#SVGID_14_);}
	.st14{fill:url(#SVGID_15_);}
	.st15{fill:url(#SVGID_16_);}
	.st16{fill:url(#SVGID_17_);}
	.st17{fill:url(#SVGID_18_);}
	.st18{fill:url(#SVGID_19_);}
	.st19{fill:url(#SVGID_20_);}
	.st20{fill:url(#SVGID_21_);}
	.st21{fill:url(#SVGID_22_);}
</style>
<g>
	<linearGradient id="SVGID_1_" gradientUnits="userSpaceOnUse" x1="13.7002" y1="256.0002" x2="498.4004" y2="256.0002">
		<stop  offset="0" style="stop-color:#0082C8"/>
		<stop  offset="1" style="stop-color:#667DB6"/>
	</linearGradient>
	<path class="st0" d="M481.7,78.6H30.4c-9.2,0-16.7,7.5-16.7,16.7v321.3c0,9.3,7.5,16.8,16.7,16.8h451.3c9.2,0,16.7-7.5,16.7-16.7
		V95.3C498.4,86.1,490.9,78.6,481.7,78.6z M427.4,90.6v330.8H84.8V90.6H427.4z M25.7,416.6V95.3c0-2.6,2.1-4.7,4.7-4.7h42.4v330.8
		H30.4C27.8,421.4,25.7,419.2,25.7,416.6z M486.4,416.7c0,2.6-2.1,4.7-4.7,4.7h-42.3V90.6h42.3c2.6,0,4.7,2.1,4.7,4.7V416.7z"/>
	<linearGradient id="SVGID_2_" gradientUnits="userSpaceOnUse" x1="230" y1="190.8054" x2="296.175" y2="190.8054">
		<stop  offset="0" style="stop-color:#0082C8"/>
		<stop  offset="1" style="stop-color:#667DB6"/>
	</linearGradient>
	<path class="st1" d="M234.2,226.5c1.3,0.8,2.9,1.2,4.4,1.2c1.5,0,2.9-0.4,4.3-1.1c0,0,0.1,0,0.1-0.1l48.8-28.3
		c2.6-1.4,4.3-4.2,4.3-7.2c0.1-3.1-1.6-6-4.2-7.6c0,0,0,0,0,0L243,155.1c-2.6-1.6-6-1.6-8.7,0c-2.7,1.5-4.4,4.4-4.4,7.5V219
		C230,222.1,231.6,224.9,234.2,226.5z M242,168.4l38.7,22.4L242,213.2V168.4z"/>
	<linearGradient id="SVGID_3_" gradientUnits="userSpaceOnUse" x1="184.5" y1="188.3999" x2="327.7002" y2="188.3999">
		<stop  offset="0" style="stop-color:#0082C8"/>
		<stop  offset="1" style="stop-color:#667DB6"/>
	</linearGradient>
	<path class="st2" d="M256.1,260c39.5,0,71.6-32.1,71.6-71.6s-32.1-71.6-71.6-71.6c-39.5,0-71.6,32.1-71.6,71.6S216.6,260,256.1,260
		z M256.1,128.8c32.9,0,59.6,26.7,59.6,59.6S289,248,256.1,248c-32.9,0-59.6-26.7-59.6-59.6S223.2,128.8,256.1,128.8z"/>
	<linearGradient id="SVGID_4_" gradientUnits="userSpaceOnUse" x1="43" y1="117.1001" x2="55" y2="117.1001">
		<stop  offset="0" style="stop-color:#0082C8"/>
		<stop  offset="1" style="stop-color:#667DB6"/>
	</linearGradient>
	<path class="st3" d="M49,106.5c-3.3,0-6,2.7-6,6v9.2c0,3.3,2.7,6,6,6s6-2.7,6-6v-9.2C55,109.2,52.3,106.5,49,106.5z"/>
	<linearGradient id="SVGID_5_" gradientUnits="userSpaceOnUse" x1="43" y1="156.7" x2="55" y2="156.7">
		<stop  offset="0" style="stop-color:#0082C8"/>
		<stop  offset="1" style="stop-color:#667DB6"/>
	</linearGradient>
	<path class="st4" d="M49,146.1c-3.3,0-6,2.7-6,6v9.2c0,3.3,2.7,6,6,6s6-2.7,6-6v-9.2C55,148.8,52.3,146.1,49,146.1z"/>
	<linearGradient id="SVGID_6_" gradientUnits="userSpaceOnUse" x1="43" y1="196.3499" x2="55" y2="196.3499">
		<stop  offset="0" style="stop-color:#0082C8"/>
		<stop  offset="1" style="stop-color:#667DB6"/>
	</linearGradient>
	<path class="st5" d="M49,185.8c-3.3,0-6,2.7-6,6v9.1c0,3.3,2.7,6,6,6s6-2.7,6-6v-9.1C55,188.5,52.3,185.8,49,185.8z"/>
	<linearGradient id="SVGID_7_" gradientUnits="userSpaceOnUse" x1="43" y1="236" x2="55" y2="236">
		<stop  offset="0" style="stop-color:#0082C8"/>
		<stop  offset="1" style="stop-color:#667DB6"/>
	</linearGradient>
	<path class="st6" d="M49,225.4c-3.3,0-6,2.7-6,6v9.2c0,3.3,2.7,6,6,6s6-2.7,6-6v-9.2C55,228.1,52.3,225.4,49,225.4z"/>
	<linearGradient id="SVGID_8_" gradientUnits="userSpaceOnUse" x1="43" y1="275.6001" x2="55" y2="275.6001">
		<stop  offset="0" style="stop-color:#0082C8"/>
		<stop  offset="1" style="stop-color:#667DB6"/>
	</linearGradient>
	<path class="st7" d="M49,265c-3.3,0-6,2.7-6,6v9.2c0,3.3,2.7,6,6,6s6-2.7,6-6V271C55,267.7,52.3,265,49,265z"/>
	<linearGradient id="SVGID_9_" gradientUnits="userSpaceOnUse" x1="43" y1="315.1997" x2="55" y2="315.1997">
		<stop  offset="0" style="stop-color:#0082C8"/>
		<stop  offset="1" style="stop-color:#667DB6"/>
	</linearGradient>
	<path class="st8" d="M49,304.6c-3.3,0-6,2.7-6,6v9.2c0,3.3,2.7,6,6,6s6-2.7,6-6v-9.2C55,307.3,52.3,304.6,49,304.6z"/>
	<linearGradient id="SVGID_10_" gradientUnits="userSpaceOnUse" x1="43" y1="354.8003" x2="55" y2="354.8003">
		<stop  offset="0" style="stop-color:#0082C8"/>
		<stop  offset="1" style="stop-color:#667DB6"/>
	</linearGradient>
	<path class="st9" d="M49,344.2c-3.3,0-6,2.7-6,6v9.2c0,3.3,2.7,6,6,6s6-2.7,6-6v-9.2C55,346.9,52.3,344.2,49,344.2z"/>
	<linearGradient id="SVGID_11_" gradientUnits="userSpaceOnUse" x1="43" y1="394.3999" x2="55" y2="394.3999">
		<stop  offset="0" style="stop-color:#0082C8"/>
		<stop  offset="1" style="stop-color:#667DB6"/>
	</linearGradient>
	<path class="st10" d="M49,383.8c-3.3,0-6,2.7-6,6v9.2c0,3.3,2.7,6,6,6s6-2.7,6-6v-9.2C55,386.5,52.3,383.8,49,383.8z"/>
	<linearGradient id="SVGID_12_" gradientUnits="userSpaceOnUse" x1="456.7002" y1="117.3999" x2="468.7002" y2="117.3999">
		<stop  offset="0" style="stop-color:#0082C8"/>
		<stop  offset="1" style="stop-color:#667DB6"/>
	</linearGradient>
	<path class="st11" d="M462.7,106.8c-3.3,0-6,2.7-6,6v9.2c0,3.3,2.7,6,6,6s6-2.7,6-6v-9.2C468.7,109.5,466,106.8,462.7,106.8z"/>
	<linearGradient id="SVGID_13_" gradientUnits="userSpaceOnUse" x1="456.7002" y1="157" x2="468.7002" y2="157">
		<stop  offset="0" style="stop-color:#0082C8"/>
		<stop  offset="1" style="stop-color:#667DB6"/>
	</linearGradient>
	<path class="st12" d="M462.7,146.4c-3.3,0-6,2.7-6,6v9.2c0,3.3,2.7,6,6,6s6-2.7,6-6v-9.2C468.7,149.1,466,146.4,462.7,146.4z"/>
	<linearGradient id="SVGID_14_" gradientUnits="userSpaceOnUse" x1="456.7002" y1="196.6001" x2="468.7002" y2="196.6001">
		<stop  offset="0" style="stop-color:#0082C8"/>
		<stop  offset="1" style="stop-color:#667DB6"/>
	</linearGradient>
	<path class="st13" d="M462.7,186c-3.3,0-6,2.7-6,6v9.2c0,3.3,2.7,6,6,6s6-2.7,6-6V192C468.7,188.7,466,186,462.7,186z"/>
	<linearGradient id="SVGID_15_" gradientUnits="userSpaceOnUse" x1="456.7002" y1="236.2" x2="468.7002" y2="236.2">
		<stop  offset="0" style="stop-color:#0082C8"/>
		<stop  offset="1" style="stop-color:#667DB6"/>
	</linearGradient>
	<path class="st14" d="M462.7,225.6c-3.3,0-6,2.7-6,6v9.2c0,3.3,2.7,6,6,6s6-2.7,6-6v-9.2C468.7,228.3,466,225.6,462.7,225.6z"/>
	<linearGradient id="SVGID_16_" gradientUnits="userSpaceOnUse" x1="456.7002" y1="275.8003" x2="468.7002" y2="275.8003">
		<stop  offset="0" style="stop-color:#0082C8"/>
		<stop  offset="1" style="stop-color:#667DB6"/>
	</linearGradient>
	<path class="st15" d="M462.7,265.2c-3.3,0-6,2.7-6,6v9.2c0,3.3,2.7,6,6,6s6-2.7,6-6v-9.2C468.7,267.9,466,265.2,462.7,265.2z"/>
	<linearGradient id="SVGID_17_" gradientUnits="userSpaceOnUse" x1="456.7002" y1="315.3999" x2="468.7002" y2="315.3999">
		<stop  offset="0" style="stop-color:#0082C8"/>
		<stop  offset="1" style="stop-color:#667DB6"/>
	</linearGradient>
	<path class="st16" d="M462.7,304.8c-3.3,0-6,2.7-6,6v9.2c0,3.3,2.7,6,6,6s6-2.7,6-6v-9.2C468.7,307.5,466,304.8,462.7,304.8z"/>
	<linearGradient id="SVGID_18_" gradientUnits="userSpaceOnUse" x1="456.7002" y1="355" x2="468.7002" y2="355">
		<stop  offset="0" style="stop-color:#0082C8"/>
		<stop  offset="1" style="stop-color:#667DB6"/>
	</linearGradient>
	<path class="st17" d="M462.7,344.4c-3.3,0-6,2.7-6,6v9.2c0,3.3,2.7,6,6,6s6-2.7,6-6v-9.2C468.7,347.1,466,344.4,462.7,344.4z"/>
	<linearGradient id="SVGID_19_" gradientUnits="userSpaceOnUse" x1="456.7002" y1="394.6001" x2="468.7002" y2="394.6001">
		<stop  offset="0" style="stop-color:#0082C8"/>
		<stop  offset="1" style="stop-color:#667DB6"/>
	</linearGradient>
	<path class="st18" d="M462.7,384c-3.3,0-6,2.7-6,6v9.2c0,3.3,2.7,6,6,6s6-2.7,6-6V390C468.7,386.7,466,384,462.7,384z"/>
	<linearGradient id="SVGID_20_" gradientUnits="userSpaceOnUse" x1="188.7002" y1="345.5995" x2="323.5" y2="345.5995">
		<stop  offset="0" style="stop-color:#0082C8"/>
		<stop  offset="1" style="stop-color:#667DB6"/>
	</linearGradient>
	<path class="st19" d="M323.1,347.6c0,0,0-0.1,0.1-0.1c0.1-0.3,0.2-0.5,0.2-0.8c0-0.1,0-0.1,0-0.2c0.1-0.3,0.1-0.6,0.1-0.9
		s0-0.6-0.1-0.9c0-0.1,0-0.1,0-0.2c-0.1-0.3-0.1-0.5-0.2-0.8c0-0.1,0-0.1-0.1-0.1c-0.1-0.2-0.2-0.4-0.3-0.6c0-0.1-0.1-0.1-0.1-0.2
		c-0.2-0.2-0.3-0.4-0.5-0.6c0,0-0.1-0.1-0.1-0.1c-0.2-0.2-0.4-0.3-0.6-0.5c-0.1,0-0.1-0.1-0.2-0.1c0,0-0.1,0-0.1-0.1l-64.8-40.5
		c-1.5-0.9-3.3-1-4.9-0.2l-34,17l-23.1-3c-1.4-0.2-2.9,0.3-3.9,1.2s-1.7,2.3-1.7,3.8v52.1c0,1.4,0.6,2.8,1.7,3.8
		c0.9,0.8,2.1,1.2,3.3,1.2c0.2,0,0.4,0,0.7,0l23.1-3.1l34,17c0.7,0.4,1.5,0.5,2.2,0.5c0.9,0,1.8-0.3,2.7-0.8l64.8-40.5
		c0,0,0.1,0,0.1-0.1c0.1,0,0.1-0.1,0.2-0.1c0.2-0.1,0.4-0.3,0.6-0.5c0,0,0.1-0.1,0.1-0.1c0.2-0.2,0.4-0.4,0.5-0.6
		c0-0.1,0.1-0.1,0.1-0.2C322.8,348.1,323,347.9,323.1,347.6z M198.7,325.3l14,1.8v37l-14,1.9V325.3z M253.4,380.4L222.7,365v-38.8
		l30.7-15.4l47.6,29.8h-33c-2.8,0-5,2.2-5,5s2.2,5,5,5h33L253.4,380.4z"/>
	<linearGradient id="SVGID_21_" gradientUnits="userSpaceOnUse" x1="246.8999" y1="345.6997" x2="256.9004" y2="345.6997">
		<stop  offset="0" style="stop-color:#0082C8"/>
		<stop  offset="1" style="stop-color:#667DB6"/>
	</linearGradient>
	<path class="st20" d="M251.9,340.6c-2.8,0-5,2.2-5,5v0.2c0,2.8,2.2,5,5,5s5-2.2,5-5v-0.2C256.9,342.8,254.7,340.6,251.9,340.6z"/>
	<linearGradient id="SVGID_22_" gradientUnits="userSpaceOnUse" x1="341.0996" y1="325.3496" x2="391.0996" y2="325.3496">
		<stop  offset="0" style="stop-color:#0082C8"/>
		<stop  offset="1" style="stop-color:#667DB6"/>
	</linearGradient>
	<path class="st21" d="M346.1,350.6c12.7,0,23-10.3,23-23v-4.5c0-7.2,5.8-13,13-13h4c2.8,0,5-2.2,5-5s-2.2-5-5-5h-4
		c-12.7,0-23,10.3-23,23v4.5c0,7.2-5.8,13-13,13c-2.8,0-5,2.2-5,5S343.3,350.6,346.1,350.6z"/>
</g>
</svg>
