<?xml version="1.0" encoding="utf-8"?>
<!-- Generator: Adobe Illustrator 21.0.0, SVG Export Plug-In . SVG Version: 6.00 Build 0)  -->
<svg version="1.1" id="Layer_1" xmlns="http://www.w3.org/2000/svg" xmlns:xlink="http://www.w3.org/1999/xlink" x="0px" y="0px"
	 viewBox="0 0 512 512" style="enable-background:new 0 0 512 512;" xml:space="preserve">
<style type="text/css">
	.st0{fill:url(#SVGID_1_);}
	.st1{fill:url(#SVGID_2_);}
</style>
<g>
	<linearGradient id="SVGID_1_" gradientUnits="userSpaceOnUse" x1="185.9028" y1="370.4587" x2="326.0977" y2="370.4587">
		<stop  offset="0" style="stop-color:#0082C8"/>
		<stop  offset="1" style="stop-color:#667DB6"/>
	</linearGradient>
	<path class="st0" d="M262.1,260.5C262.1,260.5,262.1,260.5,262.1,260.5l-0.1-0.1c0,0,0-0.1-0.1-0.1c-0.1-0.2-0.2-0.4-0.4-0.6
		c0-0.1-0.1-0.1-0.1-0.2c-0.2-0.2-0.3-0.4-0.5-0.6c0,0,0,0,0,0c-0.2-0.2-0.4-0.4-0.6-0.5c-0.1,0-0.1-0.1-0.2-0.1
		c-0.2-0.1-0.4-0.2-0.5-0.4c-0.1,0-0.1-0.1-0.2-0.1c-0.5-0.3-1-0.5-1.5-0.6c-0.1,0-0.1,0-0.2,0c-0.2-0.1-0.4-0.1-0.6-0.1
		c-0.1,0-0.1,0-0.2,0c-0.3,0-0.6-0.1-0.8-0.1c-0.3,0-0.6,0-0.8,0.1c-0.1,0-0.1,0-0.2,0c-0.2,0-0.4,0.1-0.6,0.1c-0.1,0-0.1,0-0.2,0.1
		c-0.5,0.2-1,0.4-1.5,0.6c-0.1,0-0.1,0.1-0.2,0.1c-0.2,0.1-0.4,0.2-0.5,0.4c-0.1,0-0.1,0.1-0.2,0.1c-0.2,0.2-0.4,0.3-0.6,0.5
		c0,0,0,0,0,0c-0.2,0.2-0.4,0.4-0.5,0.6c0,0.1-0.1,0.1-0.1,0.2c-0.1,0.2-0.3,0.4-0.4,0.6c0,0,0,0.1-0.1,0.1L186.8,371
		c-0.9,1.5-1.1,3.4-0.7,5.1l14.5,58c-0.4,0.6-0.6,1.2-0.8,1.9l-9.7,39.5c-0.5,2.1,0,4.2,1.3,5.9c1.3,1.7,3.3,2.6,5.4,2.6h118.5
		c2.1,0,4.1-1,5.4-2.6c1.3-1.7,1.8-3.8,1.3-5.9l-9.7-39.5c-0.2-0.7-0.5-1.3-0.8-1.9l14.5-58c0.4-1.7,0.2-3.5-0.7-5.1L262.1,260.5z
		 M256,365.6c4.9,0,8.9,4,8.9,8.9c0,4.9-4,8.9-8.9,8.9c-4.9,0-8.9-4-8.9-8.9C247.1,369.5,251.1,365.6,256,365.6z M205.5,470.2
		l6.3-25.7h88.3l6.3,25.7H205.5z M298.1,430.8h-84.1l-13.8-55.3l49-85.7v63.1c-9.1,2.9-15.8,11.5-15.8,21.6
		c0,12.5,10.2,22.7,22.7,22.7c12.5,0,22.7-10.2,22.7-22.7c0-10.1-6.6-18.7-15.8-21.6v-63.1l49,85.7L298.1,430.8z"/>
	<linearGradient id="SVGID_2_" gradientUnits="userSpaceOnUse" x1="65.434" y1="131.6781" x2="446.566" y2="131.6781">
		<stop  offset="0" style="stop-color:#0082C8"/>
		<stop  offset="1" style="stop-color:#667DB6"/>
	</linearGradient>
	<path class="st1" d="M409,160.3c-18.3,0-33.6,13.2-36.9,30.6h-65c12.2-10.3,22-24,29.4-41c7.4-17,12.1-37.5,13.3-57.2h18.3
		c3.8,0,6.9-3.1,6.9-6.9v-51c0-3.8-3.1-6.9-6.9-6.9h-51c-3.8,0-6.9,3.1-6.9,6.9v51c0,3.8,3.1,6.9,6.9,6.9h18.9
		c-2.1,33.7-15.6,74.9-47.7,94.8v-15.2c0-3.8-3.1-6.9-6.9-6.9h-51c-3.8,0-6.9,3.1-6.9,6.9v14.1c-30.8-20.3-43.9-60.7-46-93.7h18.3
		c3.8,0,6.9-3.1,6.9-6.9v-51c0-3.8-3.1-6.9-6.9-6.9h-51c-3.8,0-6.9,3.1-6.9,6.9v51c0,3.8,3.1,6.9,6.9,6.9h19
		c1.1,19.4,5.8,39.6,13,56.4c7.4,17.3,17.4,31.3,29.8,41.8h-66.8c-3.2-17.4-18.5-30.6-36.9-30.6c-20.7,0-37.5,16.8-37.5,37.5
		s16.8,37.5,37.5,37.5c18.3,0,33.6-13.2,36.9-30.6h83.8v18.6c0,3.8,3.1,6.9,6.9,6.9h51c3.8,0,6.9-3.1,6.9-6.9v-18.6h83.8
		c3.2,17.4,18.5,30.6,36.9,30.6c20.7,0,37.5-16.8,37.5-37.5S429.7,160.3,409,160.3z M324.1,41.8h37.3V79h-37.3V41.8z M151.8,41.8
		H189V79h-37.3V41.8z M103,221.6c-13.1,0-23.8-10.7-23.8-23.8s10.7-23.8,23.8-23.8c12.8,0,23.3,10.2,23.7,22.8
		c0,0.3-0.1,0.6-0.1,0.9c0,0.3,0,0.6,0.1,0.9C126.2,211.4,115.8,221.6,103,221.6z M237.4,216.5v-37.3h37.3V199c0,0,0,0,0,0.1v17.4
		H237.4z M409,221.6c-12.4,0-22.6-9.5-23.7-21.6c0.2-0.7,0.4-1.4,0.4-2.2c0-0.8-0.1-1.5-0.4-2.2c1.1-12.1,11.3-21.6,23.7-21.6
		c13.1,0,23.8,10.7,23.8,23.8S422.1,221.6,409,221.6z"/>
</g>
</svg>
