<svg id="Layer_1" data-name="Layer 1" xmlns="http://www.w3.org/2000/svg" viewBox="0 0 1400 1400"><defs><style>.cls-1{fill:#1f2a5f;}</style></defs><title>ship</title><g id="ship"><path id="ship-2" data-name="ship" class="cls-1" d="M823.1,954.4l3.3-9-31.1,5.5a116.61,116.61,0,0,1-4.1-30.3,112.69,112.69,0,0,1,5.8-36h1.2a1.6,1.6,0,0,0,0-3.2H775.5V869.1h-.3v-4.4l20.7-6.3-20.7-6.3v-2.8a1.3,1.3,0,0,0-2.6,0v19.8h-.3v.6l-40.6-35.9c.3-.9.7-1.9,1.1-2.8h1.1a1.6,1.6,0,0,0,0-3.2H725l-11-9.7v-3.4h-.3v-7.4l20.7-6.3-20.7-6.3V792a1.3,1.3,0,0,0-2.6,0v22.8h-.3v3.4l-11,9.7h-5.7a1.6,1.6,0,1,0,0,3.2h1.3c-.1.3-.3.7-.4,1l-28.6,25.3-17.1-5.2v-2.8a1.3,1.3,0,0,0-2.6,0v19.8h-.3v5.9l-7.3,6.4H626.3a1.6,1.6,0,1,0,0,3.2h2.2c-.9,2.7-1.7,5.5-2.4,8.3l-64.4,57c-2.1-1-4.1-1.9-6.1-2.9v4.3a503.88,503.88,0,0,0,54.8,23.4v7.5c8.7,4.1,22.8,9.7,22.8,9.7l13.2,21.2H789.6l15.7-32.3,9.2-2.9,5.4-14.9,22.8-7.1,1.5-4.2ZM646.5,976.8a338.42,338.42,0,0,1-82.8-26.1l61.9-54.8a117.56,117.56,0,0,0-2.7,24.7,114.11,114.11,0,0,0,6.3,37.6h17.3Zm0-95.3h-4.6l4.6-4Zm2.9-16.8,13.3-4-13,11.5v-3.1h-.3Zm61.4,16.8H682.4a1.6,1.6,0,0,0,0,3.2h1.3a115.53,115.53,0,0,0-5.8,36,114.11,114.11,0,0,0,6.3,37.6h26.5v23.9a340.7,340.7,0,0,1-61.1-4.7V958.4H670a114.11,114.11,0,0,1-6.3-37.6,112.69,112.69,0,0,1,5.8-36h.8a1.6,1.6,0,1,0,0-3.2H649.5v-6.8l17.1-15.2,3.3-1-1.6-.5,25.3-22.4a54.34,54.34,0,0,0-2.5,16.2,53.43,53.43,0,0,0,4.8,22.3h14.6v7.3Zm0-53.6h-8.3l8.3-7.3Zm3.2-7.3,8.3,7.3H714Zm26.4,100.1a112.69,112.69,0,0,1,5.8-36h.8a1.6,1.6,0,0,0,0-3.2H714v-7.4h19.5a53.74,53.74,0,0,1-2.3-38.4l41.2,36.5v9.3H754.2a1.6,1.6,0,0,0,0,3.2H756a115.53,115.53,0,0,0-5.8,36,114.11,114.11,0,0,0,6.3,37.6h15.7v5.5l-37.8,6.8-3.9,10.7c-5.5.4-11.1.7-16.6.8V958.3h32.8m31.3,4.4-2.5.5v-5h4.2Z"/></g></svg>