<svg id="Layer_1" data-name="Layer 1" xmlns="http://www.w3.org/2000/svg" viewBox="0 0 1400 1400"><defs><style>.cls-1{fill:#1f2a5f;opacity:0.2;isolation:isolate;}</style></defs><title>silhouette</title><g id="silhouette"><g id="ship"><path id="ship_shadow" data-name="ship shadow" class="cls-1" d="M844.3,1074.5l-1.5-4.2-22.8-7.1-5.4-14.9-9.2-2.9-15.7-32.3H646.5l-13.2,21.2s-14.1,5.7-22.8,9.7v7.5a503.88,503.88,0,0,0-54.8,23.4v4.3c2-1,4.1-2,6.1-2.9l64.4,57c.7,2.8,1.5,5.6,2.4,8.3h-2.2a1.6,1.6,0,0,0,0,3.2h12.8l7.3,6.4v5.9h.3v19.8a1.3,1.3,0,1,0,2.6,0v-2.8l17.1-5.2L695,1194c.1.3.3.7.4,1h-1.3a1.6,1.6,0,1,0,0,3.2h5.7l11,9.7v3.4h.3v22.8a1.3,1.3,0,1,0,2.6,0v-2.8l20.7-6.3-20.7-6.3v-7.4h.3v-3.4l11-9.7h8.8a1.6,1.6,0,1,0,0-3.2h-1.1c-.4-.9-.7-1.8-1.1-2.8l40.6-35.9v.6h.3v19.8a1.3,1.3,0,1,0,2.6,0v-2.8l20.7-6.3-20.7-6.3v-4.4h.3v-12.3h22.7a1.6,1.6,0,1,0,0-3.2H797a115.53,115.53,0,0,1-5.8-36,112.49,112.49,0,0,1,4.1-30.3l31.1,5.5-3.3-9Zm-197.8-6.6H629.2a114.11,114.11,0,0,0-6.3,37.6,112,112,0,0,0,2.7,24.7l-61.9-54.8a347.24,347.24,0,0,1,82.8-26.1Zm0,80.8-4.6-4h4.6Zm2.9,8.2h.3v-3.1l13,11.5-13.3-4Zm61.4-4.9H696.2a54,54,0,0,0-2.3,38.5l-25.3-22.4,1.6-.5-3.3-1-17.1-15.2v-6.8h20.8a1.6,1.6,0,1,0,0-3.2h-.8a115.53,115.53,0,0,1-5.8-36,114.11,114.11,0,0,1,6.3-37.6H649.9v-19.1A340.7,340.7,0,0,1,711,1044v23.9H684.5a114.11,114.11,0,0,0-6.3,37.6,112.69,112.69,0,0,0,5.8,36h-1.3a1.6,1.6,0,1,0,0,3.2h28.4v7.3Zm0,53.5-8.3-7.3h8.3Zm3.2-7.3h8.3l-8.3,7.3Zm58.3-44.2-41.2,36.5a53.74,53.74,0,0,1,2.3-38.4H714v-7.4h33.1a1.6,1.6,0,1,0,0-3.2h-.8a115.53,115.53,0,0,1-5.8-36,114.11,114.11,0,0,1,6.3-37.6H714v-23.8c5.6.1,11.1.4,16.6.8l3.9,10.7,37.8,6.8v5.5H756.6a114.11,114.11,0,0,0-6.3,37.6,112.69,112.69,0,0,0,5.8,36h-1.8a1.6,1.6,0,0,0,0,3.2h18.1l-.1,9.3Zm7.3-86.1h-4.2v-5l2.5.5Z"/></g></g></svg>